Coordinates
version=1
nRows=14
nColumns=36
inDegrees=yes

Units are S.I. units (second, meters, Newtons, ...)
If the header above contains a line with 'inDegrees', this indicates whether rotational values are in degrees (yes) or radians (no).

endheader
time	pelvis_tilt	pelvis_list	pelvis_rotation	pelvis_tx	pelvis_ty	pelvis_tz	hip_flexion_r	hip_adduction_r	hip_rotation_r	knee_angle_r	knee_angle_r_beta	ankle_angle_r	subtalar_angle_r	mtp_angle_r	hip_flexion_l	hip_adduction_l	hip_rotation_l	knee_angle_l	knee_angle_l_beta	ankle_angle_l	subtalar_angle_l	mtp_angle_l	lumbar_extension	lumbar_bending	lumbar_rotation	arm_flex_r	arm_add_r	arm_rot_r	elbow_flex_r	pro_sup_r	arm_flex_l	arm_add_l	arm_rot_l	elbow_flex_l	pro_sup_l
      4.84583330	     -3.62076294	     -0.91463025	     -1.29567547	      0.38929842	      0.95286033	     -0.06337568	     15.81748498	     -7.15357531	     -2.31497553	     30.20531665	      0.52718223	     14.59475739	    -10.88306062	     -7.49999987	     19.03221628	     -5.22643506	      3.98823811	     32.47891624	      0.56686403	     11.67586280	    -10.54096795	     -7.49999987	    -17.33251203	      3.30741088	      0.00479006	     30.36250710	    -16.23681257	     24.12208758	     61.22712305	     76.91493250	     24.54395309	     -4.88767116	     21.37405881	     81.73471219	     60.32033342
      4.85000000	     -3.71308167	     -0.97003241	     -1.28289021	      0.39038848	      0.95236562	     -0.06309188	     15.43215012	     -7.00863400	     -2.31440838	     29.42850470	      0.51362430	     14.33885292	    -10.76463752	     -7.49999987	     18.67275839	     -5.31074577	      3.94712502	     31.69861859	      0.55324526	     11.49022767	    -10.42838893	     -7.49999987	    -16.82783023	      3.24752775	     -0.03187299	     30.18442218	    -16.25540876	     24.20782025	     61.53569653	     76.65780112	     24.63446666	     -4.92248077	     21.54015645	     81.76340434	     60.31745973
      4.85416670	     -3.57732397	     -0.97569496	     -1.38611070	      0.39080358	      0.95675233	     -0.06160589	     14.75112618	     -6.88881429	     -2.46988080	     28.46626646	      0.49683008	     13.88598510	    -10.85928674	     -7.49999987	     17.88232371	     -5.34442759	      3.96313586	     30.61207108	      0.53428143	     11.12769357	    -10.15949346	     -7.49999987	    -16.68476795	      3.07279776	     -0.01225201	     30.12741325	    -16.07186611	     24.36901265	     61.63038009	     76.83813451	     24.67630657	     -5.13532144	     21.54227031	     81.81031637	     60.31405386
      4.85833330	     -3.90648933	     -0.97836691	     -1.46573165	      0.39217376	      0.95820823	     -0.06165148	     14.66201067	     -6.83520470	     -2.79051472	     27.70700458	      0.48357846	     13.68307546	    -10.68473807	     -7.49999987	     17.66979344	     -5.39232916	      3.86389293	     29.69692931	      0.51830919	     11.00640026	     -9.83018340	     -7.49999987	    -15.90633605	      2.98421354	      0.06710886	     29.86363710	    -16.04891963	     24.51472544	     61.80780819	     76.43386537	     24.52788282	     -5.12548593	     21.74872203	     81.81641080	     60.31959746
      4.86250000	     -3.51310748	     -0.98167011	     -1.45189821	      0.39194468	      0.96112861	     -0.06151629	     13.59236319	     -6.73157246	     -2.78775370	     26.47535614	      0.46208214	     13.19118044	    -10.60037308	     -7.49999987	     16.63804906	     -5.37501444	      4.02895595	     28.59148454	      0.49901554	     10.40130021	    -10.12851278	     -7.49999987	    -16.15375751	      2.89991443	      0.11157626	     30.05725746	    -15.87514574	     24.59817077	     61.73744101	     76.73148666	     24.72916390	     -5.34003040	     21.74192778	     81.77225519	     60.32337324
      4.86666670	     -3.45929170	     -0.97860428	     -1.44767217	      0.39231439	      0.96262271	     -0.06014998	     12.98182880	     -6.62007831	     -2.91865793	     25.47529670	      0.44462781	     12.88409184	    -10.23431843	     -7.49999987	     16.02251005	     -5.39726735	      4.09586512	     27.60794229	      0.48184949	      9.89673863	    -10.17690765	     -7.49999987	    -15.97490143	      2.78190866	      0.13985063	     30.05050512	    -15.80762334	     24.56422410	     61.76048931	     77.34603436	     24.85275442	     -5.54203749	     21.76971671	     81.87399526	     60.34902778
      4.87083330	     -3.80067085	     -1.02549435	     -1.44126217	      0.39173838	      0.96161992	     -0.06012438	     13.07574547	     -6.50379442	     -3.04821613	     24.93455465	      0.43519008	     12.64487626	    -10.04619281	     -7.49999987	     16.06061933	     -5.48265165	      4.13224884	     27.01911715	      0.47157256	      9.65873190	    -10.11884849	     -7.49999987	    -15.30835700	      2.77081358	      0.15087969	     29.88907217	    -15.80116695	     24.49297574	     61.94934513	     77.36988168	     24.83895821	     -5.55659640	     21.88971625	     81.88922280	     60.36983672
      4.87500000	     -3.37218701	     -1.02862990	     -1.46547814	      0.39586176	      0.96559235	     -0.06250713	     11.99455478	     -6.53009739	     -3.17904708	     23.99212627	      0.41874160	     12.20399033	     -9.85650301	     -7.49999987	     14.93090301	     -5.45179264	      4.21058093	     25.96734152	      0.45321561	      9.31384458	     -9.99556784	     -7.49999987	    -15.55084695	      2.74283642	      0.14356984	     29.93867157	    -15.79038868	     24.46366308	     62.10993100	     77.92113797	     24.93547515	     -5.67696973	     22.23310998	     82.01251089	     60.43428852
      4.87916670	     -3.31969903	     -0.99509156	     -1.44300154	      0.39746322	      0.96460328	     -0.06150291	     11.36586037	     -6.55809216	     -3.33021583	     23.15035101	      0.40404985	     12.02783712	     -9.69550196	     -7.49999987	     14.25807108	     -5.40579819	      4.22859061	     25.01749479	      0.43663765	      9.11796114	     -9.97891786	     -7.49999987	    -15.27987792	      2.71482813	      0.12619987	     29.83475462	    -15.88689406	     24.38237470	     62.30285749	     77.86639724	     24.84027645	     -5.71458368	     22.55430269	     82.18753025	     60.48439831
      4.88333330	     -3.31515576	     -0.98291105	     -1.47971308	      0.39729784	      0.96407234	     -0.06085916	     10.90899350	     -6.56839592	     -3.50010996	     22.36937930	      0.39041932	     11.85039238	     -9.63476856	     -7.49999987	     13.75591997	     -5.40222856	      4.25820207	     24.23430112	      0.42296835	      8.81876785	    -10.17771475	     -7.49999987	    -14.96684828	      2.65806749	      0.18644822	     29.78661674	    -15.96990464	     24.21481231	     62.61088382	     78.13530193	     24.80697967	     -5.79851988	     22.74820983	     82.35862371	     60.54577915
      4.88750000	     -3.17958351	     -0.93600732	     -1.48205236	      0.39799853	      0.96802971	     -0.05969609	     10.24707127	     -6.57675678	     -3.72523302	     21.55427650	      0.37619309	     11.58235238	     -9.36279317	     -7.49999987	     13.00941920	     -5.39213235	      4.20810460	     23.22002950	      0.40526597	      8.38401908	    -10.24091218	     -7.49999987	    -14.89347739	      2.56834879	      0.22203633	     29.78451295	    -15.93798232	     24.05054683	     62.84933850	     78.08292098	     24.81593480	     -5.87880357	     22.94649870	     82.50701679	     60.60918846
      4.89166670	     -3.46104568	     -0.90158057	     -1.48693036	      0.39841309	      0.96709463	     -0.05961884	     10.17638283	     -6.54933205	     -3.90285329	     20.89380930	      0.36466577	     11.41806331	     -9.18449989	     -7.49999987	     12.90540179	     -5.41064342	      4.10357460	     22.50257350	      0.39274400	      8.04713655	    -10.28201777	     -7.49999987	    -14.25142326	      2.51390444	      0.26867081	     29.59421325	    -15.92569491	     23.91105884	     63.12880643	     78.03676246	     24.70351964	     -5.86185523	     23.17128488	     82.60842076	     60.65549210
      4.89583330	     -3.19625671	     -0.85245083	     -1.54757792	      0.39786809	      0.97002819	     -0.05826533	      9.54418128	     -6.50558383	     -4.00238680	     20.18695574	      0.35232884	     11.13057013	     -9.13217891	     -7.49999987	     12.18543775	     -5.41757201	      4.05326053	     21.69329851	      0.37861948	      7.55691798	    -10.21014147	     -7.49999987	    -14.47104008	      2.33580396	      0.29879873	     29.71788307	    -15.81722020	     23.76155543	     63.50766862	     78.17265440	     25.00092524	     -6.08351755	     23.35464516	     82.68540387	     60.74471812
      4.90000000	     -3.17025174	     -0.76385949	     -1.56001375	      0.39939583	      0.97358769	     -0.05735970	      8.99562258	     -6.48906078	     -3.97606976	     19.24063222	      0.33581238	     10.77830582	     -8.79428242	     -7.49999987	     11.59660526	     -5.38642665	      3.90475968	     20.73330377	      0.36186442	      7.05730764	    -10.07124942	     -7.49999987	    -14.24286755	      2.19114135	      0.38327968	     29.45959528	    -15.69944920	     23.65247189	     63.80996783	     77.58555117	     25.19143941	     -6.13493424	     23.68174751	     82.32663793	     60.80353925
